HIERARCHY
ROOT hip
{
  OFFSET 0.0 0.0 0.0
  CHANNELS 6 Xposition Yposition Zposition Zrotation Yrotation Xrotation
  JOINT torso
  {
    OFFSET 0.0 0.0 0.0
    CHANNELS 3 Zrotation Xrotation Yrotation
    JOINT neck
    {
      OFFSET -20.11218299999996 327.95800799999995 66.30578600000035
      CHANNELS 3 Zrotation Xrotation Yrotation
      JOINT head
      {
        OFFSET 18.28939800000012 288.83178699999996 217.81652800000006
        CHANNELS 3 Zrotation Xrotation Yrotation
        End Site
        {
          OFFSET 0.0 0.0 0.0
        }
      }
    }
    JOINT left_collar
    {
      OFFSET -20.11218299999996 327.95800799999995 66.30578600000035
      CHANNELS 3 Zrotation Xrotation Yrotation
      JOINT left_upper_arm
      {
        OFFSET -127.08163400000001 -16.17407199999991 15.44799799999987
        CHANNELS 3 Zrotation Xrotation Yrotation
        JOINT left_forearm
        {
          OFFSET -234.267792 45.78796399999999 109.31286600000021
          CHANNELS 3 Zrotation Xrotation Yrotation
          JOINT left_hand
          {
            OFFSET -259.114014 -33.25433399999997 16.18847699999992
            CHANNELS 3 Zrotation Xrotation Yrotation
            End Site
            {
              OFFSET 0.0 0.0 0.0
            }
          }
        }
      }
    }
    JOINT right_collar
    {
      OFFSET -20.11218299999996 327.95800799999995 66.30578600000035
      CHANNELS 3 Zrotation Xrotation Yrotation
      JOINT right_upper_arm
      {
        OFFSET 164.513184 1.5733030000000099 4.892333999999892
        CHANNELS 3 Zrotation Xrotation Yrotation
        JOINT right_forearm
        {
          OFFSET 260.742027 48.718444999999974 144.35229500000014
          CHANNELS 3 Zrotation Xrotation Yrotation
          JOINT right_hand
          {
            OFFSET 287.85150899999996 -44.57171600000015 13.96813899999961
            CHANNELS 3 Zrotation Xrotation Yrotation
            End Site
            {
              OFFSET 0.0 0.0 0.0
            }
          }
        }
      }
    }
  }
}
MOTION
Frames: 13
Frame Time: 0.01
-283.473785655268 216.70707433490801 1481.7623164452616 3.09341395017059 -13.713878875114064 -5.871979203699449 -0.046813048207500416 0.8577420791034485 0.06180855528717199 0.7267887156587453 -6.524419300128698 -0.16862399309700712 0.0 0.0 0.0 2.1140931280222484 0.6581427082463148 -2.7284869105148193 63.7104199073938 32.74744698997546 -8.039459053562677 -2.813091116987655 1.2187014577420496 -13.32764944887565 0.0 0.0 0.0 -2.2353515201847456 0.09170382575888608 2.5308880686282587 -56.9295316519173 41.52924523736933 23.470619957731675 -0.8873018887824738 0.4532092747549787 2.515971632349713 0.0 0.0 0.0
-283.3765099121746 216.48115936105705 1482.1053094633053 3.069719062489101 -13.728182831027285 -5.835751703500345 -0.036751284482925785 0.8662547434241172 0.06036803765815375 0.7482867330994667 -6.517353228057138 -0.1857292384568436 0.0 0.0 0.0 2.1123353364436634 0.6626399507295474 -2.7607795223476983 63.610213070655185 32.70783623197935 -8.074413579071889 -2.7365202764235983 1.244741591264866 -13.44108953622145 0.0 0.0 0.0 -2.2320158137421267 0.0915139707503228 2.529194610695928 -56.832051937065565 41.461216192366706 23.48821306344307 -0.9866421175001447 0.46361757686745536 2.5362502305122856 0.0 0.0 0.0
-283.28120278443663 216.25222830790128 1482.4522025931942 3.0455193738095208 -13.742612994252584 -5.798042841605102 -0.026851791859080695 0.8745514718950582 0.05894733592626888 0.7700979744642193 -6.5094565194859895 -0.20312283672271994 0.0 0.0 0.0 2.111018818596903 0.6672166939685524 -2.793174338420245 63.50843606953243 32.668899281868846 -8.112730294959052 -2.660670004839435 1.2707678194813532 -13.554102073362522 0.0 0.0 0.0 -2.2284952446802078 0.09130949126596206 2.5269828659603046 -56.73205624655515 41.39171470254456 23.506874935635267 -1.089470064224396 0.47486183992167513 2.5598467384179426 0.0 0.0 0.0
-283.1869640748118 216.02053470145518 1482.8061314188876 3.0208536393300025 -13.757074442164305 -5.7589789946419305 -0.01723702735482419 0.8824882815414657 0.0575613728415537 0.7919732058751575 -6.500452153138411 -0.22062627653959133 0.0 0.0 0.0 2.110247872579039 0.6718288169142599 -2.8252644499915434 63.40452665729587 32.63102034960949 -8.155902702203873 -2.5861899007328497 1.296588876116982 -13.666058088676317 0.0 0.0 0.0 -2.2247796830142015 0.09109084890625674 2.524346666155738 -56.62899032349773 41.32063832844553 23.527262860863907 -1.1966367035051433 0.4873427471683171 2.588734976940725 0.0 0.0 0.0
-283.0926959611017 215.7863322362569 1483.1705434059513 2.995765723203391 -13.771473293844876 -5.7187347205154495 -0.008022250433027378 0.8899343741925526 0.056224404724444274 0.8136369654647176 -6.490066999767363 -0.238040415487454 0.0 0.0 0.0 2.11011150722656 0.6764315472840546 -2.856653160896954 63.2979031719458 32.594542086216855 -8.20537295469092 -2.5136915687618875 1.3220201072681805 -13.77636547900425 0.0 0.0 0.0 -2.2208755349806104 0.09085952850291848 2.5213974688566196 -56.522291028779776 41.24789501054054 23.550074210148146 -1.3089090037499578 0.5014526360779072 2.6248170686297283 0.0 0.0 0.0
-282.9971165719716 215.54990161252178 1483.5490988485296 2.9703069182076782 -13.785716976581556 -5.677538121602822 0.0006876550105068571 0.8967763654778768 0.054949678771424815 0.8347900339972096 -6.478041773634997 -0.25514687002978215 0.0 0.0 0.0 2.110679189274993 0.6809802690419405 -2.8869640667954792 63.1879909938993 32.55975496460181 -8.262478434437055 -2.4437357594546896 1.3468871654445527 -13.884476301209897 0.0 0.0 0.0 -2.2168083617055165 0.09061814757810148 2.5182623921729244 -56.411414812990515 41.173416262932264 23.576029317236422 -1.4269214079539396 0.517560899526792 2.669852780525047 0.0 0.0 0.0
-282.89877502866324 215.31157867582044 1483.9455703889066 2.944538468446047 -13.799713791060784 -5.635675245950613 0.008800787636027424 0.9029216128838344 0.05374914993256757 0.8551128896279785 -6.464141053981054 -0.2717101761286688 0.0 0.0 0.0 2.1119972251374786 0.6854311475160676 -2.9158493126522114 63.07424721132418 32.52688847920697 -8.328403762086678 -2.3768214018243063 1.3710293533141065 -13.98989273896584 0.0 0.0 0.0 -2.212624506868431 0.09037051467714932 2.5150823421496464 -56.295866260738734 41.097170038814085 23.60585344938924 -1.5511327455726607 0.5360006953520391 2.7253972637222135 0.0 0.0 0.0
-282.79606737765346 215.07178249699373 1484.3637452621288 2.918534097027081 -13.813371774621627 -5.593493131998181 0.01624020380242897 0.9083004879229803 0.05263325742333386 0.874270199612492 -6.448163016107811 -0.28748078008166644 0.0 0.0 0.0 2.114085922141059 0.6897415601452341 -2.9429957626986196 62.95618242134124 32.49610451304754 -8.404140221345873 -2.3133769830618216 1.394302499936394 -14.09217186699633 0.0 0.0 0.0 -2.2083915823879394 0.0901216299971108 2.512010254375388 -56.175225460310074 41.019172659408426 23.64025852773418 -1.68179073092732 0.5570573637379734 2.792749636753159 0.0 0.0 0.0
-282.6872529420793 214.831041989882 1484.8073341316974 2.8923822800817267 -13.826596926791986 -5.551401058277305 0.022945266337857536 0.9128674977342588 0.05161075176340682 0.8919163594892899 -6.429948482932171 -0.3021988866054284 0.0 0.0 0.0 2.116937664062126 0.69387035172625 -2.9681290361062005 62.83337875957998 32.46749310926065 -8.490454157094986 -2.2537546362954015 1.4165812759335434 -14.190929418509828 0.0 0.0 0.0 -2.2041977645787645 0.08987762644458601 2.509209377628525 -56.04917289359798 40.93949919338826 23.679925324740108 -1.8189058120460093 0.5809588163429183 2.872914045848154 0.0 0.0 0.0
-282.570470767153 214.59001970655243 1485.2798899083032 2.8661879786333384 -13.839290911333107 -5.509869541076508 0.028872416846610172 0.9166012217865422 0.050688558599408504 0.9077020449665862 -6.40938890478966 -0.3155991549686471 0.0 0.0 0.0 2.120516033988831 0.6977779607120836 -2.991015554515212 62.70550341751752 32.441070768722 -8.587865491079809 -2.1982271758817697 1.4377608794453887 -14.285842778771263 0.0 0.0 0.0 -2.2001499542158185 0.0896456538024311 2.5068514441438903 -55.91751054739459 40.85829167941573 23.725486869124367 -1.9622357228240208 0.6078680784099525 2.9665741445743614 0.0 0.0 0.0
-282.44375603622257 214.34953158051815 1485.784739278847 2.840073543059193 -13.851348380564465 -5.46942664359294 0.03399544168667064 0.9195030901698326 0.04987166586471106 0.9212816998460259 -6.386432906579948 -0.32741619872170147 0.0 0.0 0.0 2.1247560962916165 0.7014264818107249 -3.0114629022099777 62.572317116729 32.41678128780329 -8.696637064520022 -2.146988175889957 1.457758050610259 -14.376653383172599 0.0 0.0 0.0 -2.1963709220893417 0.08943371159923047 2.5051145121800533 -55.7801780622509 40.775764626221985 23.777513706843486 -2.1112816376963504 0.637878124977649 3.074081348508013 0.0 0.0 0.0
-282.3050565895344 214.11056160073176 1486.3249288341126 2.8141785405850275 -13.862654080782375 -5.430651226093475 0.038305300359735596 0.9215950886359296 0.04916302530421869 0.9323218471113279 -6.361091104261025 -0.3373908123758071 0.0 0.0 0.0 2.129565890785169 0.7047797367560888 -3.0293189126049698 62.433677285314694 32.3944990575445 -8.81677504495339 -2.1001550293518996 1.4765113990103351 -14.463168614225433 0.0 0.0 0.0 -2.192995582174478 0.08925043681762758 2.504180236395883 -55.637262979350574 40.69220733008215 23.8365015229487 -2.265296295921745 0.6710091302037577 3.195456676760138 0.0 0.0 0.0
-282.15224996637534 213.87427066622092 1486.9031867293386 2.7886583207892257 -13.873079894758275 -5.394162880298056 0.041809568789426224 0.922916526225988 0.04856346628341782 0.9405100750006982 -6.333438975079703 -0.34527681632576673 0.0 0.0 0.0 2.13482910954829 0.7078034208376717 -3.0444699593004563 62.28953599489785 32.37403466470264 -8.948040146360428 -2.057774763869585 1.4939810559535138 -14.54526319166475 0.0 0.0 0.0 -2.1901665211891364 0.08910485146848311 2.5042303228245846 -55.48900448856451 40.607982720067916 23.902861471117713 -2.4233038476290276 0.707208221536343 3.3304054534241736 0.0 0.0 0.0
